<svg width="54" height="54" viewBox="0 0 54 54" fill="none" xmlns="http://www.w3.org/2000/svg">
<path d="M27 0.333336C23.4981 0.333336 20.0305 1.02309 16.7951 2.36322C13.5598 3.70334 10.6201 5.66759 8.14386 8.14382C3.14289 13.1448 0.333374 19.9276 0.333374 27C0.333374 34.0724 3.14289 40.8552 8.14386 45.8562C10.6201 48.3324 13.5598 50.2967 16.7951 51.6368C20.0305 52.9769 23.4981 53.6667 27 53.6667C34.0725 53.6667 40.8552 50.8572 45.8562 45.8562C50.8572 40.8552 53.6667 34.0724 53.6667 27C53.6667 23.4981 52.977 20.0305 51.6368 16.7951C50.2967 13.5598 48.3324 10.62 45.8562 8.14382C43.38 5.66759 40.4403 3.70334 37.2049 2.36322C33.9696 1.02309 30.502 0.333336 27 0.333336M13.8534 43.7467C15 41.3467 21.9867 39 27 39C32.0134 39 39 41.3467 40.1467 43.7467C36.4117 46.7227 31.7757 48.3402 27 48.3333C22.04 48.3333 17.48 46.6267 13.8534 43.7467ZM43.96 39.88C40.1467 35.24 30.8934 33.6667 27 33.6667C23.1067 33.6667 13.8534 35.24 10.04 39.88C7.2032 36.1857 5.66582 31.6579 5.66671 27C5.66671 15.24 15.24 5.66667 27 5.66667C38.76 5.66667 48.3334 15.24 48.3334 27C48.3334 31.8533 46.68 36.3333 43.96 39.88M27 11C21.8267 11 17.6667 15.16 17.6667 20.3333C17.6667 25.5067 21.8267 29.6667 27 29.6667C32.1734 29.6667 36.3334 25.5067 36.3334 20.3333C36.3334 15.16 32.1734 11 27 11ZM27 24.3333C25.9392 24.3333 24.9218 23.9119 24.1716 23.1618C23.4215 22.4116 23 21.3942 23 20.3333C23 19.2725 23.4215 18.2551 24.1716 17.5049C24.9218 16.7548 25.9392 16.3333 27 16.3333C28.0609 16.3333 29.0783 16.7548 29.8285 17.5049C30.5786 18.2551 31 19.2725 31 20.3333C31 21.3942 30.5786 22.4116 29.8285 23.1618C29.0783 23.9119 28.0609 24.3333 27 24.3333Z" fill="black"/>
</svg>
